<svg width="84" height="60" viewBox="0 0 84 60" fill="none" xmlns="http://www.w3.org/2000/svg">
<path d="M66.9999 21.6667C66.9999 20.5616 66.5609 19.5018 65.7795 18.7204C64.9981 17.939 63.9383 17.5 62.8333 17.5H14.5416L24.1249 7.95833C24.9095 7.17374 25.3503 6.10959 25.3503 5C25.3503 3.89041 24.9095 2.82627 24.1249 2.04167C23.3403 1.25707 22.2762 0.816284 21.1666 0.816284C20.057 0.816284 18.9929 1.25707 18.2083 2.04167L1.5416 18.7083C0.96344 19.2943 0.571789 20.0383 0.416063 20.8466C0.260338 21.6549 0.347516 22.4912 0.666597 23.25C0.97918 24.0109 1.51 24.6623 2.19217 25.122C2.87434 25.5817 3.67732 25.8292 4.49993 25.8333H62.8333C63.9383 25.8333 64.9981 25.3943 65.7795 24.6129C66.5609 23.8315 66.9999 22.7717 66.9999 21.6667ZM83.3333 36.75C83.0207 35.9891 82.4899 35.3377 81.8077 34.878C81.1255 34.4183 80.3225 34.1708 79.4999 34.1667H21.1666C20.0615 34.1667 19.0017 34.6057 18.2203 35.3871C17.4389 36.1685 16.9999 37.2283 16.9999 38.3333C16.9999 39.4384 17.4389 40.4982 18.2203 41.2796C19.0017 42.061 20.0615 42.5 21.1666 42.5H69.4583L59.8749 52.0417C59.4844 52.429 59.1744 52.8899 58.9629 53.3976C58.7513 53.9053 58.6424 54.45 58.6424 55C58.6424 55.5501 58.7513 56.0947 58.9629 56.6024C59.1744 57.1102 59.4844 57.571 59.8749 57.9583C60.2623 58.3489 60.7231 58.6589 61.2309 58.8704C61.7386 59.0819 62.2832 59.1908 62.8333 59.1908C63.3833 59.1908 63.9279 59.0819 64.4357 58.8704C64.9434 58.6589 65.4042 58.3489 65.7916 57.9583L82.4583 41.2917C83.0364 40.7057 83.4281 39.9617 83.5838 39.1534C83.7395 38.3451 83.6523 37.5088 83.3333 36.75Z" fill="#85BB7D"/>
</svg>
