<svg width="1057" height="644" viewBox="0 0 1057 644" fill="none" xmlns="http://www.w3.org/2000/svg">
<path d="M1057 0H21V644H1057V0Z" fill="white"/>
<path d="M1022 76C1039.67 76 1054 61.6731 1054 44C1054 26.3269 1039.67 12 1022 12C1004.33 12 990 26.3269 990 44C990 61.6731 1004.33 76 1022 76Z" fill="#1E84BF" fill-opacity="0.5"/>
<path d="M1022 114C1028.63 114 1034 108.627 1034 102C1034 95.3726 1028.63 90 1022 90C1015.37 90 1010 95.3726 1010 102C1010 108.627 1015.37 114 1022 114Z" fill="#1E84BF" fill-opacity="0.5"/>
<path d="M953 620C959.627 620 965 614.627 965 608C965 601.373 959.627 596 953 596C946.373 596 941 601.373 941 608C941 614.627 946.373 620 953 620Z" fill="#EF4746" fill-opacity="0.7"/>
<path d="M970 90C973.866 90 977 86.866 977 83C977 79.134 973.866 76 970 76C966.134 76 963 79.134 963 83C963 86.866 966.134 90 970 90Z" fill="#EF4746" fill-opacity="0.7"/>
<path d="M919 574C922.866 574 926 570.866 926 567C926 563.134 922.866 560 919 560C915.134 560 912 563.134 912 567C912 570.866 915.134 574 919 574Z" fill="#1E84BF" fill-opacity="0.5"/>
<path d="M965 584C968.866 584 972 580.866 972 577C972 573.134 968.866 570 965 570C961.134 570 958 573.134 958 577C958 580.866 961.134 584 965 584Z" fill="#1E84BF" fill-opacity="0.5"/>
<path d="M939 644C939 635.201 937.267 626.489 933.9 618.36C930.533 610.231 925.598 602.845 919.376 596.624C913.155 590.402 905.769 585.467 897.64 582.1C889.511 578.733 880.799 577 872 577C863.201 577 854.489 578.733 846.36 582.1C838.231 585.467 830.845 590.402 824.624 596.624C818.402 602.845 813.467 610.231 810.1 618.36C806.733 626.489 805 635.201 805 644H872H939Z" fill="#1E84BF" fill-opacity="0.5"/>
<path d="M0 0H491L606 644H0V0Z" fill="#1E84BF"/>
</svg>
